<svg width="1600" height="1200" viewBox="0 0 1600 1200" fill="none" xmlns="http://www.w3.org/2000/svg">
  <rect width="1600" height="1200" rx="72" fill="#F6F8F2"/>
  <rect x="64" y="64" width="1472" height="1072" rx="56" fill="url(#bg)"/>
  <circle cx="1278" cy="218" r="196" fill="#E7F5D8"/>
  <circle cx="310" cy="940" r="188" fill="#EEF8E4"/>
  <rect x="204" y="898" width="1188" height="80" rx="28" fill="#DCE8D1"/>
  <rect x="286" y="422" width="196" height="250" rx="28" fill="#171B19"/>
  <rect x="308" y="444" width="152" height="206" rx="18" fill="#1E2421"/>
  <rect x="560" y="326" width="486" height="344" rx="30" fill="#151917"/>
  <rect x="590" y="356" width="426" height="284" rx="20" fill="#1E2421"/>
  <rect x="1086" y="382" width="226" height="226" rx="30" fill="#161A18"/>
  <rect x="1112" y="408" width="174" height="174" rx="18" fill="#1E2421"/>
  <rect x="338" y="474" width="92" height="10" rx="5" fill="#86F556" fill-opacity="0.4"/>
  <rect x="628" y="396" width="350" height="8" rx="4" fill="#86F556" fill-opacity="0.3"/>
  <rect x="628" y="460" width="350" height="8" rx="4" fill="#86F556" fill-opacity="0.18"/>
  <rect x="628" y="524" width="350" height="8" rx="4" fill="#86F556" fill-opacity="0.18"/>
  <g fill="#DDE7D3">
    <circle cx="578" cy="348" r="7"/>
    <circle cx="640" cy="348" r="7"/>
    <circle cx="702" cy="348" r="7"/>
    <circle cx="764" cy="348" r="7"/>
    <circle cx="826" cy="348" r="7"/>
    <circle cx="888" cy="348" r="7"/>
    <circle cx="950" cy="348" r="7"/>
    <circle cx="1012" cy="348" r="7"/>
    <circle cx="1134" cy="408" r="6"/>
    <circle cx="1264" cy="408" r="6"/>
    <circle cx="1134" cy="582" r="6"/>
    <circle cx="1264" cy="582" r="6"/>
  </g>
  <path d="M236 214C236 186.386 258.386 164 286 164H676C703.614 164 726 186.386 726 214V264H236V214Z" fill="white" fill-opacity="0.96"/>
  <text x="280" y="228" fill="#1C2A15" font-family="Arial, Helvetica, sans-serif" font-size="32" font-weight="700" letter-spacing="5">BATTERY FABRICATION RANGE</text>
  <text x="214" y="1008" fill="#77B74F" font-family="Arial, Helvetica, sans-serif" font-size="40" font-weight="700" letter-spacing="8">RACKS, CASES, AND CUSTOM PANELS</text>
  <text x="214" y="1078" fill="#183109" font-family="Arial, Helvetica, sans-serif" font-size="102" font-weight="800">Battery Solutions</text>
  <defs>
    <linearGradient id="bg" x1="126" y1="110" x2="1452" y2="1086" gradientUnits="userSpaceOnUse">
      <stop stop-color="#F8FAF5"/>
      <stop offset="1" stop-color="#E2ECD7"/>
    </linearGradient>
  </defs>
</svg>
